<svg width="179" height="324" viewBox="0 0 179 324" fill="none" xmlns="http://www.w3.org/2000/svg">
<path fill-rule="evenodd" clip-rule="evenodd" d="M312.123 -302.959C366.396 -304.87 397.517 -239.701 445.638 -214.529C496.526 -187.909 571.884 -199.507 602.625 -150.997C633.128 -102.862 599.654 -39.7698 592.181 16.7244C585.636 66.2024 582.814 115.563 561.403 160.646C538.827 208.182 509.869 254.136 465.782 282.868C420.655 312.278 365.987 322.884 312.123 323.105C258.127 323.327 201.351 315.965 157.736 284.132C115.437 253.26 104.303 197.175 77.7436 152.044C50.9338 106.487 -5.0648 69.3046 0.368679 16.7244C5.90067 -36.8091 69.8448 -61.8777 104.136 -103.357C132.11 -137.195 152.252 -174.915 183.929 -205.314C223.357 -243.152 257.511 -301.036 312.123 -302.959Z" fill="#FFCB47"/>
</svg>
